<svg id="Layer_3" data-name="Layer 3" xmlns="http://www.w3.org/2000/svg" viewBox="0 0 375.09 139.68"><defs><style>.cls-1{fill:#fff;}.cls-2{fill:#fada95;}.cls-3{fill:#ffba52;}.cls-4,.cls-5,.cls-6{fill:none;stroke:#fff;stroke-miterlimit:10;}.cls-4{stroke-width:3px;}.cls-5{stroke-width:4px;}</style></defs><title>mob-city</title><path class="cls-1" d="M297.1,139.58H276v-20h12.4l3,1.21,5,2,.67.27,4,1.61,2.35.94-.09,5-.15,8.93H297Z"/><polygon class="cls-1" points="287.73 128.97 287.81 62.96 309.25 62.99 309.17 130.67 287.73 130.64 287.73 128.97"/><polygon class="cls-1" points="284.53 7.68 284.46 64.3 309.25 65.28 309.33 0 306.99 0 306.98 7.71 284.53 7.68"/><rect class="cls-2" x="287.9" y="116.4" width="3.02" height="1.34" transform="translate(171.99 406.34) rotate(-89.93)"/><rect class="cls-3" x="288.36" y="116.86" width="3.02" height="0.42" transform="translate(172.45 406.8) rotate(-89.93)"/><rect class="cls-2" x="289.91" y="116.4" width="3.02" height="1.34" transform="translate(173.99 408.34) rotate(-89.93)"/><rect class="cls-3" x="290.37" y="116.86" width="3.02" height="0.42" transform="translate(174.45 408.8) rotate(-89.93)"/><rect class="cls-2" x="294.41" y="115.38" width="1.34" height="3.02"/><rect class="cls-3" x="294.39" y="116.87" width="3.02" height="0.42" transform="translate(178.46 412.83) rotate(-89.93)"/><rect class="cls-2" x="291.93" y="116.4" width="3.02" height="1.34" transform="translate(176.01 410.36) rotate(-89.93)"/><rect class="cls-3" x="292.39" y="116.86" width="3.02" height="0.42" transform="translate(176.47 410.82) rotate(-89.93)"/><rect class="cls-2" x="295.94" y="116.41" width="3.02" height="1.34" transform="translate(180.01 414.39) rotate(-89.93)"/><rect class="cls-3" x="296.4" y="116.87" width="3.02" height="0.42" transform="translate(180.47 414.85) rotate(-89.93)"/><rect class="cls-2" x="298.42" y="115.38" width="1.34" height="3.02"/><rect class="cls-3" x="298.41" y="116.87" width="3.02" height="0.42" transform="translate(182.47 416.85) rotate(-89.93)"/><rect class="cls-2" x="300.44" y="115.39" width="1.34" height="3.02"/><rect class="cls-3" x="301.36" y="115.39" width="0.42" height="3.02"/><rect class="cls-2" x="302.44" y="115.39" width="1.34" height="3.02"/><rect class="cls-3" x="303.36" y="115.39" width="0.42" height="3.02"/><rect class="cls-2" x="303.98" y="116.42" width="3.02" height="1.34" transform="translate(188.03 422.44) rotate(-89.93)"/><rect class="cls-3" x="304.44" y="116.88" width="3.02" height="0.42" transform="translate(188.49 422.9) rotate(-89.93)"/><rect class="cls-2" x="305.99" y="116.42" width="3.02" height="1.34" transform="translate(190.03 424.44) rotate(-89.93)"/><rect class="cls-3" x="307.37" y="115.39" width="0.42" height="3.02"/><rect class="cls-2" x="288.39" y="111.03" width="1.34" height="3.35"/><rect class="cls-3" x="289.31" y="111.03" width="0.42" height="3.35"/><rect class="cls-2" x="289.76" y="112.22" width="3.35" height="1.34" transform="translate(178.19 404.18) rotate(-89.93)"/><rect class="cls-3" x="290.21" y="112.68" width="3.35" height="0.42" transform="translate(178.64 404.63) rotate(-89.93)"/><rect class="cls-2" x="294.42" y="111.03" width="1.34" height="3.35"/><rect class="cls-3" x="294.23" y="112.69" width="3.35" height="0.42" transform="translate(182.64 408.66) rotate(-89.93)"/><rect class="cls-2" x="292.41" y="111.04" width="1.34" height="3.35"/><rect class="cls-3" x="293.33" y="111.04" width="0.42" height="3.35"/><rect class="cls-2" x="296.42" y="111.03" width="1.34" height="3.35"/><rect class="cls-3" x="296.24" y="112.69" width="3.35" height="0.42" transform="translate(184.65 410.67) rotate(-89.93)"/><rect class="cls-2" x="297.8" y="112.22" width="3.35" height="1.34" transform="translate(186.22 412.22) rotate(-89.93)"/><rect class="cls-3" x="298.26" y="112.68" width="3.35" height="0.42" transform="translate(186.68 412.68) rotate(-89.93)"/><rect class="cls-2" x="300.44" y="111.04" width="1.34" height="3.35"/><rect class="cls-3" x="301.36" y="111.04" width="0.42" height="3.35"/><rect class="cls-2" x="301.82" y="112.23" width="3.35" height="1.34" transform="translate(190.22 416.25) rotate(-89.93)"/><rect class="cls-3" x="303.37" y="111.04" width="0.42" height="3.35"/><rect class="cls-2" x="304.45" y="111.04" width="1.34" height="3.35"/><rect class="cls-3" x="305.37" y="111.04" width="0.42" height="3.35"/><rect class="cls-2" x="305.84" y="112.24" width="3.35" height="1.34" transform="translate(194.23 420.28) rotate(-89.93)"/><rect class="cls-3" x="306.3" y="112.7" width="3.35" height="0.42" transform="translate(194.69 420.74) rotate(-89.93)"/><rect class="cls-2" x="288.4" y="107" width="1.34" height="3.02"/><rect class="cls-3" x="288.37" y="108.48" width="3.02" height="0.42" transform="translate(180.84 398.44) rotate(-89.93)"/><rect class="cls-2" x="289.93" y="108.03" width="3.02" height="1.34" transform="translate(182.38 400) rotate(-89.93)"/><rect class="cls-3" x="291.33" y="107.01" width="0.42" height="3.02"/><rect class="cls-2" x="293.94" y="108.03" width="3.02" height="1.34" transform="translate(186.39 404.01) rotate(-89.93)"/><rect class="cls-3" x="295.34" y="107.01" width="0.42" height="3.02"/><rect class="cls-2" x="292.41" y="107.01" width="1.34" height="3.02"/><rect class="cls-3" x="293.33" y="107.01" width="0.42" height="3.02"/><rect class="cls-2" x="295.95" y="108.03" width="3.02" height="1.34" transform="translate(188.4 406.03) rotate(-89.93)"/><rect class="cls-3" x="297.35" y="107.01" width="0.42" height="3.02"/><rect class="cls-2" x="297.97" y="108.04" width="3.02" height="1.34" transform="translate(190.4 408.05) rotate(-89.93)"/><rect class="cls-3" x="298.43" y="108.5" width="3.02" height="0.42" transform="translate(190.86 408.51) rotate(-89.93)"/><rect class="cls-2" x="299.98" y="108.04" width="3.02" height="1.34" transform="translate(192.41 410.06) rotate(-89.93)"/><rect class="cls-3" x="300.43" y="108.5" width="3.02" height="0.42" transform="translate(192.86 410.51) rotate(-89.93)"/><rect class="cls-2" x="301.98" y="108.04" width="3.02" height="1.34" transform="translate(194.41 412.06) rotate(-89.93)"/><rect class="cls-3" x="302.44" y="108.5" width="3.02" height="0.42" transform="translate(194.87 412.52) rotate(-89.93)"/><rect class="cls-2" x="304" y="108.05" width="3.02" height="1.34" transform="translate(196.42 414.1) rotate(-89.93)"/><rect class="cls-3" x="305.38" y="107.03" width="0.42" height="3.02"/><rect class="cls-2" x="306.01" y="108.05" width="3.02" height="1.34" transform="translate(198.42 416.1) rotate(-89.93)"/><rect class="cls-3" x="306.47" y="108.51" width="3.02" height="0.42" transform="translate(198.88 416.56) rotate(-89.93)"/><rect class="cls-2" x="287.58" y="103.66" width="3.02" height="1.34" transform="translate(184.41 393.3) rotate(-89.93)"/><rect class="cls-3" x="288.04" y="104.12" width="3.02" height="0.42" transform="translate(184.87 393.76) rotate(-89.93)"/><rect class="cls-2" x="289.6" y="103.67" width="3.02" height="1.34" transform="translate(186.41 395.32) rotate(-89.93)"/><rect class="cls-3" x="290.05" y="104.13" width="3.02" height="0.42" transform="translate(186.86 395.77) rotate(-89.93)"/><rect class="cls-2" x="293.62" y="103.67" width="3.02" height="1.34" transform="translate(190.43 399.34) rotate(-89.93)"/><rect class="cls-3" x="294.07" y="104.13" width="3.02" height="0.42" transform="translate(190.88 399.79) rotate(-89.93)"/><rect class="cls-2" x="291.6" y="103.67" width="3.02" height="1.34" transform="translate(188.41 397.32) rotate(-89.93)"/><rect class="cls-3" x="293" y="102.66" width="0.42" height="3.02"/><rect class="cls-2" x="295.62" y="103.67" width="3.02" height="1.34" transform="translate(192.43 401.35) rotate(-89.93)"/><rect class="cls-3" x="296.08" y="104.13" width="3.02" height="0.42" transform="translate(192.89 401.81) rotate(-89.93)"/><rect class="cls-2" x="297.64" y="103.68" width="3.02" height="1.34" transform="translate(194.43 403.37) rotate(-89.93)"/><rect class="cls-3" x="298.1" y="104.14" width="3.02" height="0.42" transform="translate(194.89 403.83) rotate(-89.93)"/><rect class="cls-2" x="299.64" y="103.68" width="3.02" height="1.34" transform="translate(196.43 405.37) rotate(-89.93)"/><rect class="cls-3" x="300.1" y="104.14" width="3.02" height="0.42" transform="translate(196.89 405.83) rotate(-89.93)"/><rect class="cls-2" x="301.66" y="103.68" width="3.02" height="1.34" transform="translate(198.45 407.39) rotate(-89.93)"/><rect class="cls-3" x="302.12" y="104.14" width="3.02" height="0.42" transform="translate(198.91 407.85) rotate(-89.93)"/><rect class="cls-2" x="304.13" y="102.68" width="1.34" height="3.02"/><rect class="cls-3" x="304.12" y="104.15" width="3.02" height="0.42" transform="translate(200.9 409.87) rotate(-89.93)"/><rect class="cls-2" x="306.14" y="102.68" width="1.34" height="3.02"/><rect class="cls-3" x="306.14" y="104.15" width="3.02" height="0.42" transform="translate(202.91 411.88) rotate(-89.93)"/><rect class="cls-2" x="287.59" y="99.65" width="3.02" height="1.34" transform="translate(188.43 389.3) rotate(-89.93)"/><rect class="cls-3" x="288.04" y="100.11" width="3.02" height="0.42" transform="translate(188.88 389.75) rotate(-89.93)"/><rect class="cls-2" x="289.6" y="99.66" width="3.02" height="1.34" transform="translate(190.42 391.31) rotate(-89.93)"/><rect class="cls-3" x="290.06" y="100.12" width="3.02" height="0.42" transform="translate(190.88 391.77) rotate(-89.93)"/><rect class="cls-2" x="294.1" y="98.65" width="1.34" height="3.02"/><rect class="cls-3" x="295.02" y="98.65" width="0.42" height="3.02"/><rect class="cls-2" x="291.61" y="99.66" width="3.02" height="1.34" transform="translate(192.43 393.32) rotate(-89.93)"/><rect class="cls-3" x="292.06" y="100.12" width="3.02" height="0.42" transform="translate(192.88 393.77) rotate(-89.93)"/><rect class="cls-2" x="295.63" y="99.66" width="3.02" height="1.34" transform="translate(196.45 397.35) rotate(-89.93)"/><rect class="cls-3" x="297.03" y="98.65" width="0.42" height="3.02"/><rect class="cls-2" x="297.64" y="99.67" width="3.02" height="1.34" transform="translate(198.44 399.36) rotate(-89.93)"/><rect class="cls-3" x="298.1" y="100.13" width="3.02" height="0.42" transform="translate(198.9 399.82) rotate(-89.93)"/><rect class="cls-2" x="300.12" y="98.66" width="1.34" height="3.02"/><rect class="cls-3" x="300.11" y="100.13" width="3.02" height="0.42" transform="translate(200.91 401.83) rotate(-89.93)"/><rect class="cls-2" x="302.13" y="98.66" width="1.34" height="3.02"/><rect class="cls-3" x="302.12" y="100.13" width="3.02" height="0.42" transform="translate(202.92 403.84) rotate(-89.93)"/><rect class="cls-2" x="304.14" y="98.67" width="1.34" height="3.02"/><rect class="cls-3" x="304.13" y="100.14" width="3.02" height="0.42" transform="translate(204.92 405.87) rotate(-89.93)"/><rect class="cls-2" x="306.14" y="98.67" width="1.34" height="3.02"/><rect class="cls-3" x="307.06" y="98.67" width="0.42" height="3.02"/><rect class="cls-2" x="287.59" y="95.29" width="3.02" height="1.34" transform="translate(192.79 384.95) rotate(-89.93)"/><rect class="cls-3" x="289" y="94.29" width="0.42" height="3.02"/><rect class="cls-2" x="289.61" y="95.29" width="3.02" height="1.34" transform="translate(194.8 386.96) rotate(-89.93)"/><rect class="cls-3" x="290.07" y="95.75" width="3.02" height="0.42" transform="translate(195.26 387.42) rotate(-89.93)"/><rect class="cls-2" x="293.62" y="95.3" width="3.02" height="1.34" transform="translate(198.8 390.98) rotate(-89.93)"/><rect class="cls-3" x="295.02" y="94.3" width="0.42" height="3.02"/><rect class="cls-2" x="291.62" y="95.29" width="3.02" height="1.34" transform="translate(196.81 388.97) rotate(-89.93)"/><rect class="cls-3" x="292.08" y="95.75" width="3.02" height="0.42" transform="translate(197.27 389.43) rotate(-89.93)"/><rect class="cls-2" x="295.63" y="95.3" width="3.02" height="1.34" transform="translate(200.81 393) rotate(-89.93)"/><rect class="cls-3" x="297.03" y="94.3" width="0.42" height="3.02"/><rect class="cls-2" x="298.12" y="94.3" width="1.34" height="3.02"/><rect class="cls-3" x="298.11" y="95.76" width="3.02" height="0.42" transform="translate(203.28 395.47) rotate(-89.93)"/><rect class="cls-2" x="300.13" y="94.3" width="1.34" height="3.02"/><rect class="cls-3" x="300.12" y="95.76" width="3.02" height="0.42" transform="translate(205.29 397.48) rotate(-89.93)"/><rect class="cls-2" x="301.66" y="95.31" width="3.02" height="1.34" transform="translate(206.82 399.03) rotate(-89.93)"/><rect class="cls-3" x="302.12" y="95.77" width="3.02" height="0.42" transform="translate(207.28 399.49) rotate(-89.93)"/><rect class="cls-2" x="303.67" y="95.31" width="3.02" height="1.34" transform="translate(208.83 401.05) rotate(-89.93)"/><rect class="cls-3" x="304.13" y="95.77" width="3.02" height="0.42" transform="translate(209.29 401.51) rotate(-89.93)"/><rect class="cls-2" x="305.68" y="95.31" width="3.02" height="1.34" transform="translate(210.84 403.06) rotate(-89.93)"/><rect class="cls-3" x="306.15" y="95.77" width="3.02" height="0.42" transform="translate(211.3 403.52) rotate(-89.93)"/><rect class="cls-2" x="287.59" y="91.28" width="3.02" height="1.34" transform="translate(196.8 380.94) rotate(-89.93)"/><rect class="cls-3" x="289" y="90.28" width="0.42" height="3.02"/><rect class="cls-2" x="289.62" y="91.28" width="3.02" height="1.34" transform="translate(198.82 382.96) rotate(-89.93)"/><rect class="cls-3" x="290.08" y="91.74" width="3.02" height="0.42" transform="translate(199.28 383.42) rotate(-89.93)"/><rect class="cls-2" x="293.63" y="91.29" width="3.02" height="1.34" transform="translate(202.82 386.98) rotate(-89.93)"/><rect class="cls-3" x="294.09" y="91.75" width="3.02" height="0.42" transform="translate(203.28 387.44) rotate(-89.93)"/><rect class="cls-2" x="292.1" y="90.28" width="1.34" height="3.02"/><rect class="cls-3" x="292.08" y="91.74" width="3.02" height="0.42" transform="translate(201.28 385.42) rotate(-89.93)"/><rect class="cls-2" x="296.11" y="90.29" width="1.34" height="3.02"/><rect class="cls-3" x="296.09" y="91.75" width="3.02" height="0.42" transform="translate(205.28 389.45) rotate(-89.93)"/><rect class="cls-2" x="298.13" y="90.29" width="1.34" height="3.02"/><rect class="cls-3" x="299.05" y="90.29" width="0.42" height="3.02"/><rect class="cls-2" x="299.66" y="91.29" width="3.02" height="1.34" transform="translate(208.84 393.01) rotate(-89.93)"/><rect class="cls-3" x="301.05" y="90.29" width="0.42" height="3.02"/><rect class="cls-2" x="301.67" y="91.3" width="3.02" height="1.34" transform="translate(210.84 395.03) rotate(-89.93)"/><rect class="cls-3" x="302.13" y="91.76" width="3.02" height="0.42" transform="translate(211.3 395.49) rotate(-89.93)"/><rect class="cls-2" x="303.67" y="91.3" width="3.02" height="1.34" transform="translate(212.84 397.04) rotate(-89.93)"/><rect class="cls-3" x="304.13" y="91.76" width="3.02" height="0.42" transform="translate(213.3 397.5) rotate(-89.93)"/><rect class="cls-2" x="305.69" y="91.29" width="3.02" height="1.34" transform="translate(214.87 399.05) rotate(-89.93)"/><rect class="cls-3" x="306.16" y="91.76" width="3.02" height="0.42" transform="translate(215.32 399.52) rotate(-89.93)"/><rect class="cls-2" x="288.09" y="85.92" width="1.34" height="3.02"/><rect class="cls-3" x="289.01" y="85.92" width="0.42" height="3.02"/><rect class="cls-2" x="290.1" y="85.93" width="1.34" height="3.02"/><rect class="cls-3" x="290.08" y="87.38" width="3.02" height="0.42" transform="translate(203.64 379.07) rotate(-89.93)"/><rect class="cls-2" x="293.64" y="86.92" width="3.02" height="1.34" transform="translate(207.2 382.63) rotate(-89.93)"/><rect class="cls-3" x="294.1" y="87.38" width="3.02" height="0.42" transform="translate(207.66 383.09) rotate(-89.93)"/><rect class="cls-2" x="292.1" y="85.93" width="1.34" height="3.02"/><rect class="cls-3" x="293.02" y="85.93" width="0.42" height="3.02"/><rect class="cls-2" x="295.64" y="86.92" width="3.02" height="1.34" transform="translate(209.2 384.64) rotate(-89.93)"/><rect class="cls-3" x="296.1" y="87.38" width="3.02" height="0.42" transform="translate(209.66 385.1) rotate(-89.93)"/><rect class="cls-2" x="297.66" y="86.93" width="3.02" height="1.34" transform="translate(211.2 386.66) rotate(-89.93)"/><rect class="cls-3" x="299.05" y="85.94" width="0.42" height="3.02"/><rect class="cls-2" x="299.66" y="86.93" width="3.02" height="1.34" transform="translate(213.2 388.66) rotate(-89.93)"/><rect class="cls-3" x="301.05" y="85.94" width="0.42" height="3.02"/><rect class="cls-2" x="301.68" y="86.93" width="3.02" height="1.34" transform="translate(215.22 390.68) rotate(-89.93)"/><rect class="cls-3" x="302.14" y="87.39" width="3.02" height="0.42" transform="translate(215.68 391.14) rotate(-89.93)"/><rect class="cls-2" x="303.69" y="86.94" width="3.02" height="1.34" transform="translate(217.22 392.71) rotate(-89.93)"/><rect class="cls-3" x="304.14" y="87.4" width="3.02" height="0.42" transform="translate(217.67 393.16) rotate(-89.93)"/><rect class="cls-2" x="305.69" y="86.94" width="3.02" height="1.34" transform="translate(219.22 394.71) rotate(-89.93)"/><rect class="cls-3" x="306.16" y="87.4" width="3.02" height="0.42" transform="translate(219.68 395.17) rotate(-89.93)"/><rect class="cls-2" x="288.1" y="81.91" width="1.34" height="3.02"/><rect class="cls-3" x="288.07" y="83.36" width="3.02" height="0.42" transform="translate(205.66 373.05) rotate(-89.93)"/><rect class="cls-2" x="290.1" y="81.92" width="1.34" height="3.02"/><rect class="cls-3" x="291.02" y="81.92" width="0.42" height="3.02"/><rect class="cls-2" x="293.63" y="82.91" width="3.02" height="1.34" transform="translate(211.2 378.61) rotate(-89.93)"/><rect class="cls-3" x="294.09" y="83.37" width="3.02" height="0.42" transform="translate(211.66 379.07) rotate(-89.93)"/><rect class="cls-2" x="291.63" y="82.91" width="3.02" height="1.34" transform="translate(209.2 376.61) rotate(-89.93)"/><rect class="cls-3" x="293.03" y="81.92" width="0.42" height="3.02"/><rect class="cls-2" x="295.65" y="82.91" width="3.02" height="1.34" transform="translate(213.22 380.64) rotate(-89.93)"/><rect class="cls-3" x="296.11" y="83.37" width="3.02" height="0.42" transform="translate(213.68 381.1) rotate(-89.93)"/><rect class="cls-2" x="297.67" y="82.92" width="3.02" height="1.34" transform="translate(215.22 382.66) rotate(-89.93)"/><rect class="cls-3" x="298.12" y="83.38" width="3.02" height="0.42" transform="translate(215.67 383.11) rotate(-89.93)"/><rect class="cls-2" x="299.67" y="82.92" width="3.02" height="1.34" transform="translate(217.22 384.66) rotate(-89.93)"/><rect class="cls-3" x="300.13" y="83.38" width="3.02" height="0.42" transform="translate(217.68 385.12) rotate(-89.93)"/><rect class="cls-2" x="301.68" y="82.91" width="3.02" height="1.34" transform="translate(219.24 386.66) rotate(-89.93)"/><rect class="cls-3" x="303.06" y="81.93" width="0.42" height="3.02"/><rect class="cls-2" x="303.69" y="82.91" width="3.02" height="1.34" transform="translate(221.25 388.68) rotate(-89.93)"/><rect class="cls-3" x="304.15" y="83.38" width="3.02" height="0.42" transform="translate(221.7 389.15) rotate(-89.93)"/><rect class="cls-2" x="306.17" y="81.93" width="1.34" height="3.02"/><rect class="cls-3" x="306.16" y="83.38" width="3.02" height="0.42" transform="translate(223.7 391.15) rotate(-89.93)"/><rect class="cls-2" x="287.61" y="78.54" width="3.02" height="1.34" transform="translate(209.56 368.24) rotate(-89.93)"/><rect class="cls-3" x="288.07" y="79" width="3.02" height="0.42" transform="translate(210.02 368.7) rotate(-89.93)"/><rect class="cls-2" x="289.63" y="78.54" width="3.02" height="1.34" transform="translate(211.57 370.25) rotate(-89.93)"/><rect class="cls-3" x="291.02" y="77.56" width="0.42" height="3.02"/><rect class="cls-2" x="294.13" y="77.57" width="1.34" height="3.02"/><rect class="cls-3" x="294.1" y="79.01" width="3.02" height="0.42" transform="translate(216.03 374.73) rotate(-89.93)"/><rect class="cls-2" x="291.64" y="78.54" width="3.02" height="1.34" transform="translate(213.58 372.26) rotate(-89.93)"/><rect class="cls-3" x="293.04" y="77.56" width="0.42" height="3.02"/><rect class="cls-2" x="295.65" y="78.55" width="3.02" height="1.34" transform="translate(217.58 376.29) rotate(-89.93)"/><rect class="cls-3" x="297.05" y="77.57" width="0.42" height="3.02"/><rect class="cls-2" x="297.67" y="78.55" width="3.02" height="1.34" transform="translate(219.59 378.3) rotate(-89.93)"/><rect class="cls-3" x="298.12" y="79.01" width="3.02" height="0.42" transform="translate(220.04 378.75) rotate(-89.93)"/><rect class="cls-2" x="299.68" y="78.55" width="3.02" height="1.34" transform="translate(221.6 380.31) rotate(-89.93)"/><rect class="cls-3" x="300.14" y="79.01" width="3.02" height="0.42" transform="translate(222.06 380.77) rotate(-89.93)"/><rect class="cls-2" x="301.69" y="78.56" width="3.02" height="1.34" transform="translate(223.6 382.33) rotate(-89.93)"/><rect class="cls-3" x="303.07" y="77.58" width="0.42" height="3.02"/><rect class="cls-2" x="304.16" y="77.58" width="1.34" height="3.02"/><rect class="cls-3" x="305.08" y="77.58" width="0.42" height="3.02"/><rect class="cls-2" x="306.17" y="77.58" width="1.34" height="3.02"/><rect class="cls-3" x="306.17" y="79.02" width="3.02" height="0.42" transform="translate(228.07 386.81) rotate(-89.93)"/><rect class="cls-2" x="287.62" y="74.18" width="3.02" height="1.34" transform="translate(213.93 363.9) rotate(-89.93)"/><rect class="cls-3" x="288.08" y="74.64" width="3.02" height="0.42" transform="translate(214.39 364.36) rotate(-89.93)"/><rect class="cls-2" x="289.64" y="74.19" width="3.02" height="1.34" transform="translate(215.93 365.92) rotate(-89.93)"/><rect class="cls-3" x="290.09" y="74.65" width="3.02" height="0.42" transform="translate(216.38 366.37) rotate(-89.93)"/><rect class="cls-2" x="293.65" y="74.18" width="3.02" height="1.34" transform="translate(219.95 369.92) rotate(-89.93)"/><rect class="cls-3" x="295.04" y="73.22" width="0.42" height="3.02"/><rect class="cls-2" x="291.64" y="74.19" width="3.02" height="1.34" transform="translate(217.93 367.92) rotate(-89.93)"/><rect class="cls-3" x="292.1" y="74.65" width="3.02" height="0.42" transform="translate(218.39 368.38) rotate(-89.93)"/><rect class="cls-2" x="295.66" y="74.18" width="3.02" height="1.34" transform="translate(221.96 371.94) rotate(-89.93)"/><rect class="cls-3" x="296.12" y="74.65" width="3.02" height="0.42" transform="translate(222.41 372.41) rotate(-89.93)"/><rect class="cls-2" x="297.68" y="74.19" width="3.02" height="1.34" transform="translate(223.96 373.96) rotate(-89.93)"/><rect class="cls-3" x="298.14" y="74.66" width="3.02" height="0.42" transform="translate(224.41 374.43) rotate(-89.93)"/><rect class="cls-2" x="300.15" y="73.22" width="1.34" height="3.02"/><rect class="cls-3" x="300.14" y="74.65" width="3.02" height="0.42" transform="translate(226.42 376.42) rotate(-89.93)"/><rect class="cls-2" x="302.16" y="73.22" width="1.34" height="3.02"/><rect class="cls-3" x="302.15" y="74.65" width="3.02" height="0.42" transform="translate(228.43 378.43) rotate(-89.93)"/><rect class="cls-2" x="304.17" y="73.23" width="1.34" height="3.02"/><rect class="cls-3" x="304.16" y="74.66" width="3.02" height="0.42" transform="translate(230.43 380.46) rotate(-89.93)"/><rect class="cls-2" x="306.18" y="73.23" width="1.34" height="3.02"/><rect class="cls-3" x="307.1" y="73.23" width="0.42" height="3.02"/><rect class="cls-2" x="287.62" y="69.83" width="3.02" height="1.34" transform="translate(218.28 359.55) rotate(-89.93)"/><rect class="cls-3" x="288.08" y="70.29" width="3.02" height="0.42" transform="translate(218.74 360.01) rotate(-89.93)"/><rect class="cls-2" x="289.64" y="69.83" width="3.02" height="1.34" transform="translate(220.29 361.56) rotate(-89.93)"/><rect class="cls-3" x="290.1" y="70.29" width="3.02" height="0.42" transform="translate(220.75 362.02) rotate(-89.93)"/><rect class="cls-2" x="293.66" y="69.84" width="3.02" height="1.34" transform="translate(224.3 365.59) rotate(-89.93)"/><rect class="cls-3" x="295.06" y="68.87" width="0.42" height="3.02"/><rect class="cls-2" x="291.65" y="69.83" width="3.02" height="1.34" transform="translate(222.3 363.57) rotate(-89.93)"/><rect class="cls-3" x="292.11" y="70.29" width="3.02" height="0.42" transform="translate(222.76 364.03) rotate(-89.93)"/><rect class="cls-2" x="296.14" y="68.87" width="1.34" height="3.02"/><rect class="cls-3" x="297.06" y="68.87" width="0.42" height="3.02"/><rect class="cls-2" x="297.68" y="69.84" width="3.02" height="1.34" transform="translate(228.31 369.61) rotate(-89.93)"/><rect class="cls-3" x="298.14" y="70.3" width="3.02" height="0.42" transform="translate(228.77 370.07) rotate(-89.93)"/><rect class="cls-2" x="300.16" y="68.88" width="1.34" height="3.02"/><rect class="cls-3" x="300.15" y="70.31" width="3.02" height="0.42" transform="translate(230.77 372.09) rotate(-89.93)"/><rect class="cls-2" x="302.17" y="68.88" width="1.34" height="3.02"/><rect class="cls-3" x="302.16" y="70.31" width="3.02" height="0.42" transform="translate(232.78 374.1) rotate(-89.93)"/><rect class="cls-2" x="304.17" y="68.88" width="1.34" height="3.02"/><rect class="cls-3" x="304.16" y="70.31" width="3.02" height="0.42" transform="translate(234.78 376.11) rotate(-89.93)"/><rect class="cls-2" x="305.72" y="69.85" width="3.02" height="1.34" transform="translate(236.33 377.66) rotate(-89.93)"/><rect class="cls-3" x="306.18" y="70.31" width="3.02" height="0.42" transform="translate(236.79 378.12) rotate(-89.93)"/><rect class="cls-2" x="287.63" y="65.81" width="3.02" height="1.34" transform="translate(222.31 355.55) rotate(-89.93)"/><rect class="cls-3" x="289.04" y="64.85" width="0.42" height="3.02"/><rect class="cls-2" x="290.12" y="64.84" width="1.34" height="3.02"/><rect class="cls-3" x="290.1" y="66.27" width="3.02" height="0.42" transform="translate(224.77 358.01) rotate(-89.93)"/><rect class="cls-2" x="293.66" y="65.81" width="3.02" height="1.34" transform="translate(228.33 361.57) rotate(-89.93)"/><rect class="cls-3" x="294.12" y="66.28" width="3.02" height="0.42" transform="translate(228.78 362.04) rotate(-89.93)"/><rect class="cls-2" x="292.14" y="64.84" width="1.34" height="3.02"/><rect class="cls-3" x="292.12" y="66.27" width="3.02" height="0.42" transform="translate(226.79 360.03) rotate(-89.93)"/><rect class="cls-2" x="295.67" y="65.81" width="3.02" height="1.34" transform="translate(230.34 363.59) rotate(-89.93)"/><rect class="cls-3" x="296.13" y="66.27" width="3.02" height="0.42" transform="translate(230.8 364.05) rotate(-89.93)"/><rect class="cls-2" x="298.15" y="64.85" width="1.34" height="3.02"/><rect class="cls-3" x="298.14" y="66.27" width="3.02" height="0.42" transform="translate(232.8 366.05) rotate(-89.93)"/><rect class="cls-2" x="299.7" y="65.82" width="3.02" height="1.34" transform="translate(234.35 367.62) rotate(-89.93)"/><rect class="cls-3" x="301.09" y="64.86" width="0.42" height="3.02"/><rect class="cls-2" x="301.7" y="65.82" width="3.02" height="1.34" transform="translate(236.35 369.62) rotate(-89.93)"/><rect class="cls-3" x="302.16" y="66.28" width="3.02" height="0.42" transform="translate(236.81 370.08) rotate(-89.93)"/><rect class="cls-2" x="303.71" y="65.82" width="3.02" height="1.34" transform="translate(238.36 371.64) rotate(-89.93)"/><rect class="cls-3" x="304.17" y="66.28" width="3.02" height="0.42" transform="translate(238.82 372.1) rotate(-89.93)"/><rect class="cls-2" x="305.72" y="65.82" width="3.02" height="1.34" transform="translate(240.36 373.64) rotate(-89.93)"/><rect class="cls-3" x="306.18" y="66.28" width="3.02" height="0.42" transform="translate(240.82 374.1) rotate(-89.93)"/><rect class="cls-3" x="275.51" y="122.08" width="5.36" height="2.35" transform="translate(154.59 401.3) rotate(-89.93)"/><rect class="cls-3" x="280.04" y="121.25" width="5.36" height="4.02" transform="translate(159.12 405.82) rotate(-89.93)"/><rect class="cls-3" x="275.5" y="129.11" width="5.36" height="2.35" transform="translate(147.55 408.31) rotate(-89.93)"/><rect class="cls-3" x="280.03" y="128.29" width="5.36" height="4.02" transform="translate(152.07 412.84) rotate(-89.93)"/><rect class="cls-3" x="285.57" y="121.08" width="5.36" height="4.36" transform="translate(164.63 411.36) rotate(-89.93)"/><rect class="cls-3" x="291.09" y="120.93" width="5.7" height="5.03" transform="translate(170.13 417.24) rotate(-89.93)"/><rect class="cls-3" x="296.28" y="121.44" width="5.7" height="4.02" transform="translate(175.32 422.42) rotate(-89.93)"/><rect class="cls-3" x="285.56" y="128.11" width="5.36" height="4.36" transform="translate(157.59 418.37) rotate(-89.93)"/><rect class="cls-3" x="291.08" y="127.96" width="5.7" height="5.03" transform="translate(163.09 424.25) rotate(-89.93)"/><rect class="cls-3" x="296.27" y="128.48" width="5.7" height="4.02" transform="translate(168.27 429.44) rotate(-89.93)"/><rect class="cls-3" x="275.71" y="135.93" width="4.91" height="2.35" transform="translate(140.72 415.1) rotate(-89.93)"/><rect class="cls-3" x="280.23" y="135.11" width="4.91" height="4.02" transform="translate(145.22 419.63) rotate(-89.93)"/><rect class="cls-3" x="285.77" y="134.94" width="4.91" height="4.36" transform="translate(150.75 425.17) rotate(-89.93)"/><rect class="cls-3" x="291.46" y="134.6" width="4.91" height="5.03" transform="translate(156.44 430.86) rotate(-89.93)"/><rect class="cls-3" x="296.65" y="135.12" width="4.91" height="4.02" transform="translate(161.61 436.06) rotate(-89.93)"/><polyline class="cls-4" points="76.39 24.54 76.11 110.55 68.2 110.54 68.31 24.16"/><polyline class="cls-4" points="68.3 37.07 76.38 37.08 76.37 42.27 68.29 42.26 68.28 47.07 76.32 47.08 76.3 51.74 68.28 51.73 68.27 56.62 76.35 56.7 76.34 61.48 68.27 61.43 68.26 66.47 76.25 66.48 76.24 71.51 68.25 71.5 68.25 76.02 76.33 76.03 76.32 80.78 68.24 80.77 68.23 85.77 76.19 85.78 76.18 90.5 68.23 90.5 68.22 95.63 76.3 95.64 76.3 100.5 68.22 100.49 68.21 105.48 76.29 105.5"/><polyline class="cls-5" points="170.76 24.29 170.65 110.66 178.56 110.67 178.84 24.67"/><polyline class="cls-4" points="170.74 37.2 178.82 37.21 178.81 42.4 170.74 42.38 170.73 47.2 178.76 47.21 178.75 51.87 170.72 51.86 170.72 56.74 178.73 56.76 178.79 61.57 170.71 61.56 170.71 66.59 178.7 66.6 178.69 71.64 170.7 71.63 170.69 76.14 178.77 76.15 178.77 80.91 170.69 80.9 170.68 85.9 178.64 85.91 178.62 90.63 170.68 90.62 170.67 95.75 178.75 95.77 178.74 100.63 170.66 100.62 170.66 105.61 178.74 105.62"/><polyline class="cls-4" points="67.45 24.16 67.34 111.09 76.63 111.1 77.08 24.54"/><path class="cls-4" d="M76.33,78.57s34.06-21.83,94.37.12"/><line class="cls-4" x1="170.68" y1="88.24" x2="76.31" y2="88.13"/><line class="cls-4" x1="76.78" y1="81.96" x2="170.69" y2="82.08"/><line class="cls-4" x1="79.6" y1="88.13" x2="79.62" y2="76.82"/><line class="cls-4" x1="84.83" y1="88.14" x2="84.85" y2="74.62"/><line class="cls-4" x1="90.59" y1="72.73" x2="90.57" y2="88.14"/><line class="cls-4" x1="95.97" y1="88.15" x2="96.2" y2="71.31"/><line class="cls-4" x1="101.75" y1="70.26" x2="101.73" y2="88.16"/><polygon class="cls-1" points="124.38 66.87 124.41 47.76 160.5 47.8 160.42 110.28 145.64 110.63 124.38 66.87"/><rect class="cls-3" x="119.92" y="56.28" width="16.17" height="2.06" transform="translate(70.54 185.25) rotate(-89.93)"/><rect class="cls-3" x="123.7" y="56.29" width="16.17" height="2.06" transform="translate(74.31 189.03) rotate(-89.93)"/><rect class="cls-3" x="127.82" y="56.29" width="16.17" height="2.06" transform="translate(78.42 193.16) rotate(-89.93)"/><rect class="cls-3" x="131.95" y="56.3" width="16.17" height="2.06" transform="translate(82.54 197.29) rotate(-89.93)"/><rect class="cls-3" x="136.07" y="56.3" width="16.17" height="2.06" transform="translate(86.65 201.42) rotate(-89.93)"/><rect class="cls-3" x="140.54" y="56.31" width="16.17" height="2.06" transform="translate(91.11 205.89) rotate(-89.93)"/><rect class="cls-3" x="144.67" y="56.31" width="16.17" height="2.06" transform="translate(95.23 210.03) rotate(-89.93)"/><rect class="cls-3" x="148.79" y="56.33" width="16.17" height="2.06" transform="translate(99.33 214.16) rotate(-89.93)"/><rect class="cls-3" x="133.07" y="82.49" width="41.53" height="9.63" transform="translate(66.34 241.03) rotate(-89.93)"/><line class="cls-6" x1="149.73" y1="68" x2="157.98" y2="68.01"/><line class="cls-6" x1="149.73" y1="68.92" x2="157.98" y2="68.93"/><line class="cls-6" x1="149.73" y1="70.02" x2="157.98" y2="70.03"/><line class="cls-6" x1="149.73" y1="71.13" x2="157.98" y2="71.14"/><line class="cls-6" x1="149.73" y1="72.05" x2="157.98" y2="72.06"/><line class="cls-6" x1="149.73" y1="72.96" x2="157.98" y2="72.98"/><line class="cls-6" x1="149.73" y1="74.07" x2="157.98" y2="74.08"/><line class="cls-6" x1="149.72" y1="75.17" x2="157.98" y2="75.18"/><line class="cls-6" x1="149.72" y1="76.09" x2="157.97" y2="76.1"/><line class="cls-6" x1="149.72" y1="77.01" x2="157.97" y2="77.02"/><line class="cls-6" x1="149.72" y1="78.11" x2="157.97" y2="78.12"/><line class="cls-6" x1="149.72" y1="79.21" x2="157.97" y2="79.22"/><line class="cls-6" x1="149.72" y1="80.13" x2="157.97" y2="80.14"/><line class="cls-6" x1="149.72" y1="81.05" x2="157.97" y2="81.06"/><line class="cls-6" x1="149.72" y1="82.15" x2="157.97" y2="82.16"/><line class="cls-6" x1="149.71" y1="83.26" x2="157.97" y2="83.27"/><line class="cls-6" x1="149.71" y1="84.17" x2="157.96" y2="84.19"/><line class="cls-6" x1="149.71" y1="85.09" x2="157.96" y2="85.1"/><line class="cls-6" x1="149.71" y1="86.2" x2="157.96" y2="86.21"/><line class="cls-6" x1="149.71" y1="87.3" x2="157.96" y2="87.31"/><line class="cls-6" x1="149.71" y1="88.22" x2="157.96" y2="88.23"/><line class="cls-6" x1="149.71" y1="89.14" x2="157.96" y2="89.15"/><line class="cls-6" x1="149.71" y1="90.24" x2="157.96" y2="90.25"/><line class="cls-6" x1="149.7" y1="91.34" x2="157.96" y2="91.35"/><line class="cls-6" x1="149.7" y1="92.26" x2="157.95" y2="92.27"/><line class="cls-6" x1="149.7" y1="93.18" x2="157.95" y2="93.19"/><line class="cls-6" x1="149.7" y1="94.28" x2="157.95" y2="94.29"/><line class="cls-6" x1="149.7" y1="95.38" x2="157.95" y2="95.4"/><line class="cls-6" x1="149.7" y1="96.3" x2="157.95" y2="96.31"/><line class="cls-6" x1="149.7" y1="97.22" x2="157.95" y2="97.23"/><line class="cls-6" x1="149.7" y1="98.33" x2="157.95" y2="98.34"/><line class="cls-6" x1="149.69" y1="99.43" x2="157.94" y2="99.44"/><line class="cls-6" x1="149.69" y1="100.35" x2="157.94" y2="100.36"/><line class="cls-6" x1="149.69" y1="101.27" x2="157.94" y2="101.28"/><line class="cls-6" x1="149.69" y1="102.37" x2="157.94" y2="102.38"/><line class="cls-6" x1="149.69" y1="103.47" x2="157.94" y2="103.48"/><line class="cls-6" x1="149.69" y1="104.39" x2="157.94" y2="104.4"/><line class="cls-6" x1="149.69" y1="105.31" x2="157.94" y2="105.32"/><line class="cls-6" x1="149.69" y1="106.41" x2="157.94" y2="106.42"/><line class="cls-6" x1="149.68" y1="107.51" x2="157.93" y2="107.52"/><rect class="cls-3" x="122.06" y="82.48" width="41.53" height="9.63" transform="translate(55.36 230.02) rotate(-89.93)"/><line class="cls-6" x1="138.73" y1="67.99" x2="146.98" y2="68"/><line class="cls-6" x1="138.73" y1="68.91" x2="146.98" y2="68.92"/><line class="cls-6" x1="138.73" y1="70.01" x2="146.98" y2="70.02"/><line class="cls-6" x1="138.73" y1="71.11" x2="146.98" y2="71.12"/><line class="cls-6" x1="138.73" y1="72.03" x2="146.98" y2="72.04"/><line class="cls-6" x1="138.73" y1="72.95" x2="146.98" y2="72.96"/><line class="cls-6" x1="138.72" y1="74.05" x2="146.98" y2="74.06"/><line class="cls-6" x1="138.72" y1="75.16" x2="146.97" y2="75.17"/><line class="cls-6" x1="138.72" y1="76.08" x2="146.97" y2="76.09"/><line class="cls-6" x1="138.72" y1="76.99" x2="146.97" y2="77"/><line class="cls-6" x1="138.72" y1="78.1" x2="146.97" y2="78.11"/><line class="cls-6" x1="138.72" y1="79.2" x2="146.97" y2="79.21"/><line class="cls-6" x1="138.72" y1="80.12" x2="146.97" y2="80.13"/><line class="cls-6" x1="138.72" y1="81.04" x2="146.97" y2="81.05"/><line class="cls-6" x1="138.71" y1="82.14" x2="146.97" y2="82.15"/><line class="cls-6" x1="138.71" y1="83.24" x2="146.96" y2="83.25"/><line class="cls-6" x1="138.71" y1="84.16" x2="146.96" y2="84.17"/><line class="cls-6" x1="138.71" y1="85.08" x2="146.96" y2="85.09"/><line class="cls-6" x1="138.71" y1="86.18" x2="146.96" y2="86.19"/><line class="cls-6" x1="138.71" y1="87.29" x2="146.96" y2="87.3"/><line class="cls-6" x1="138.71" y1="88.2" x2="146.96" y2="88.21"/><line class="cls-6" x1="138.71" y1="89.12" x2="146.96" y2="89.13"/><line class="cls-6" x1="138.7" y1="90.23" x2="146.96" y2="90.24"/><line class="cls-6" x1="138.7" y1="91.33" x2="146.95" y2="91.34"/><line class="cls-6" x1="138.7" y1="92.25" x2="146.95" y2="92.26"/><line class="cls-6" x1="138.7" y1="93.17" x2="146.95" y2="93.18"/><line class="cls-6" x1="138.7" y1="94.27" x2="146.95" y2="94.28"/><line class="cls-6" x1="138.7" y1="95.37" x2="146.95" y2="95.38"/><line class="cls-6" x1="138.7" y1="96.29" x2="146.95" y2="96.3"/><line class="cls-6" x1="138.7" y1="97.21" x2="146.95" y2="97.22"/><line class="cls-6" x1="138.69" y1="98.31" x2="146.95" y2="98.32"/><line class="cls-6" x1="138.69" y1="99.41" x2="146.94" y2="99.42"/><line class="cls-6" x1="138.69" y1="100.33" x2="146.94" y2="100.34"/><line class="cls-6" x1="138.69" y1="101.25" x2="146.94" y2="101.26"/><line class="cls-6" x1="138.69" y1="102.35" x2="146.94" y2="102.36"/><line class="cls-6" x1="138.69" y1="103.46" x2="146.94" y2="103.47"/><line class="cls-6" x1="138.69" y1="104.38" x2="146.94" y2="104.39"/><line class="cls-6" x1="138.69" y1="105.29" x2="146.94" y2="105.3"/><line class="cls-6" x1="138.68" y1="106.4" x2="146.94" y2="106.41"/><line class="cls-6" x1="138.68" y1="107.5" x2="146.93" y2="107.51"/><rect class="cls-3" x="126.85" y="66.36" width="9.63" height="41.53"/><line class="cls-6" x1="127.73" y1="67.98" x2="135.98" y2="67.99"/><line class="cls-6" x1="127.73" y1="68.89" x2="135.98" y2="68.9"/><line class="cls-6" x1="127.73" y1="70" x2="135.98" y2="70.01"/><line class="cls-6" x1="127.73" y1="71.1" x2="135.98" y2="71.11"/><line class="cls-6" x1="127.73" y1="72.02" x2="135.98" y2="72.03"/><line class="cls-6" x1="127.73" y1="72.94" x2="135.98" y2="72.95"/><line class="cls-6" x1="127.72" y1="74.04" x2="135.97" y2="74.05"/><line class="cls-6" x1="127.72" y1="75.14" x2="135.97" y2="75.15"/><line class="cls-6" x1="127.72" y1="76.06" x2="135.97" y2="76.07"/><line class="cls-6" x1="127.72" y1="76.98" x2="135.97" y2="76.99"/><line class="cls-6" x1="127.72" y1="78.08" x2="135.97" y2="78.09"/><line class="cls-6" x1="127.72" y1="79.19" x2="135.97" y2="79.2"/><line class="cls-6" x1="127.72" y1="80.1" x2="135.97" y2="80.11"/><line class="cls-6" x1="127.72" y1="81.02" x2="135.97" y2="81.03"/><line class="cls-6" x1="127.71" y1="82.13" x2="135.96" y2="82.14"/><line class="cls-6" x1="127.71" y1="83.23" x2="135.96" y2="83.24"/><line class="cls-6" x1="127.71" y1="84.15" x2="135.96" y2="84.16"/><line class="cls-6" x1="127.71" y1="85.07" x2="135.96" y2="85.08"/><line class="cls-6" x1="127.71" y1="86.17" x2="135.96" y2="86.18"/><line class="cls-6" x1="127.71" y1="87.27" x2="135.96" y2="87.28"/><line class="cls-6" x1="127.71" y1="88.19" x2="135.96" y2="88.2"/><line class="cls-6" x1="127.71" y1="89.11" x2="135.96" y2="89.12"/><line class="cls-6" x1="127.7" y1="90.21" x2="135.95" y2="90.22"/><line class="cls-6" x1="127.7" y1="91.31" x2="135.95" y2="91.32"/><line class="cls-6" x1="127.7" y1="92.23" x2="135.95" y2="92.24"/><line class="cls-6" x1="127.7" y1="93.15" x2="135.95" y2="93.16"/><line class="cls-6" x1="127.7" y1="94.25" x2="135.95" y2="94.26"/><line class="cls-6" x1="127.7" y1="95.36" x2="135.95" y2="95.37"/><line class="cls-6" x1="127.7" y1="96.28" x2="135.95" y2="96.29"/><line class="cls-6" x1="127.7" y1="97.19" x2="135.95" y2="97.21"/><line class="cls-6" x1="127.69" y1="98.3" x2="135.94" y2="98.31"/><line class="cls-6" x1="127.69" y1="99.4" x2="135.94" y2="99.41"/><line class="cls-6" x1="127.69" y1="100.32" x2="135.94" y2="100.33"/><line class="cls-6" x1="127.69" y1="101.24" x2="135.94" y2="101.25"/><line class="cls-6" x1="127.69" y1="102.34" x2="135.94" y2="102.35"/><line class="cls-6" x1="127.69" y1="103.44" x2="135.94" y2="103.45"/><line class="cls-6" x1="127.69" y1="104.36" x2="135.94" y2="104.37"/><line class="cls-6" x1="127.68" y1="105.28" x2="135.94" y2="105.29"/><line class="cls-6" x1="127.68" y1="106.38" x2="135.93" y2="106.39"/><line class="cls-6" x1="127.68" y1="107.49" x2="135.93" y2="107.5"/><polygon class="cls-1" points="104.47 111.13 103.86 69.94 108.99 69.36 109 66.3 137.88 66.33 137.87 70.27 147.15 70.39 146.07 110.82 104.47 111.13"/><polygon class="cls-1" points="68.48 115.17 68.45 139.3 25.6 139.25 25.73 132.72 28.46 123.76 32.28 111.2 60.66 111.24 60.65 115.16 68.48 115.17"/><polygon class="cls-1" points="46.43 106.33 44.03 106.33 44.02 112.53 50.22 112.53 50.23 106.33 47.13 106.33 46.43 106.33"/><polygon class="cls-1" points="8.51 79.21 11.78 72.69 14.71 79.22 13.73 79.22 13.72 86.39 9.48 86.39 9.82 79.21 8.51 79.21"/><polygon class="cls-1" points="44.06 79.26 47.33 72.74 50.26 79.26 49.28 79.26 49.27 86.44 45.03 86.43 45.37 79.26 44.06 79.26"/><polygon class="cls-1" points="11.11 86.06 8.83 86.06 8.8 106.28 14.35 106.29 14.37 86.07 11.11 86.06"/><polygon class="cls-1" points="46.66 86.11 44.38 86.11 44.35 106.33 49.9 106.33 49.92 86.11 46.66 86.11"/><polygon class="cls-1" points="51.18 126.56 51.16 139.28 42.36 139.27 42.37 126.55 44 126.55 44.02 110.16 44.35 110.29 46.8 111.22 50.22 112.53 50.2 126.56 51.18 126.56"/><path class="cls-1" d="M29.08,66.19,14.38,86.07l-.07,53.16h30l.06-53.17Z"/><polygon class="cls-1" points="285.7 116.09 285.68 139.57 194.02 139.46 194.05 115.97 211.34 116 211.32 128.39 224.04 128.41 224.05 124.17 255.69 124.2 255.68 128.44 269.71 128.46 269.72 116.07 285.7 116.09"/><polygon class="cls-1" points="201.88 119.9 201.98 38.68 223.83 38.71 223.84 31.86 254.82 31.9 254.7 134.97 201.86 134.9 201.88 119.9"/><polygon class="cls-1" points="362.09 139.67 324.16 139.62 324.25 72.1 325.55 72.11 325.56 65.58 330.78 65.59 330.79 53.52 341.6 17 341.62 2.98 342.93 2.98 342.91 17 354.6 52.9 354.59 65.29 359.81 65.3 359.8 72.47 360.78 72.48 361.23 95.34 361.74 121.85 361.74 121.86 361.79 124.17 361.84 126.62 362.09 139.67"/><polygon class="cls-1" points="321.9 126.57 324.19 121.03 324.18 126.57 322.66 126.57 321.9 126.57"/><polygon class="cls-1" points="361.74 121.85 363.64 126.62 361.74 126.62 361.74 121.85"/><polygon class="cls-1" points="327.52 58.73 324.58 65.58 330.78 65.59 327.52 58.73"/><polygon class="cls-1" points="357.86 59.42 354.59 65.29 360.79 65.3 357.86 59.42"/><path class="cls-1" d="M-9.95,104.17s13.12.31,18.76,1c1.64.21,3.5.43,5.54.67,7.57.88,17.76,1.92,29.68,2.77h.33l5.87.39c43.92,2.69,107.43,2.23,151.68-16.75q5.09-2.18,9.8-4.68c13-6.91,27.76-10.29,43.06-11.32a185.63,185.63,0,0,1,33,.93c1.34.14,2.67.31,4,.48h0l.67.09.92.12.42.06.67.09.92.13.42.06.67.1.92.14.42.06.67.1.92.15.42.07.67.11.92.15.42.07.67.11.92.16.42.08.67.12.92.17.42.07.67.13.92.17.42.08,1.34.26c5.16,1,10.18,2.16,15,3.35a359.43,359.43,0,0,1,37,11.43c8.74,3.24,26.05,6.35,26.05,6.35l-4.14,47.26H-10.54Z"/></svg>